<svg width="17" height="17" viewBox="0 0 17 17" fill="none" xmlns="http://www.w3.org/2000/svg">
<g clip-path="url(#clip0)">
<path d="M11.1981 5.60167C11.1978 5.52309 11.1333 5.45906 11.0547 5.45936L9.87617 5.46922L8.10927 7.59206L6.32799 5.48457L5.14762 5.48372C5.06905 5.48402 5.00501 5.54677 5.00531 5.62712C5.00544 5.66105 5.01807 5.69315 5.0396 5.71985L7.37337 8.47881L5.06075 11.2537C5.03927 11.28 5.02743 11.3128 5.02718 11.3467C5.02748 11.4253 5.09201 11.4893 5.17058 11.489L6.35091 11.4792L8.11602 9.35633L9.8973 11.4638L11.0759 11.4647C11.1545 11.4644 11.2185 11.4016 11.2182 11.3213C11.2181 11.2873 11.2054 11.2553 11.1839 11.2285L8.85371 8.47136L11.1663 5.69464C11.1877 5.66956 11.1982 5.63559 11.1981 5.60167Z" fill="#8C8C8C"/>
<path d="M8.08185 0.438534C3.66403 0.455423 0.0956027 4.05123 0.112491 8.46906C0.129379 12.8869 3.72519 16.4553 8.14301 16.4384C12.5608 16.4215 16.1293 12.8257 16.1124 8.40789C16.0955 3.99007 12.4997 0.421646 8.08185 0.438534ZM8.13783 15.0813C4.47 15.0953 1.48365 12.1317 1.46962 8.46387C1.4556 4.79604 4.41921 1.80969 8.08704 1.79567C11.7549 1.78165 14.7412 4.74525 14.7552 8.41308C14.7693 12.0809 11.8057 15.0673 8.13783 15.0813Z" fill="#8C8C8C"/>
</g>
<defs>
<clipPath id="clip0">
<rect width="16" height="16" fill="white" transform="translate(0.0819092 0.469116) rotate(-0.219027)"/>
</clipPath>
</defs>
</svg>
