<svg width="40" height="40" viewBox="0 0 40 40" fill="none" xmlns="http://www.w3.org/2000/svg">
<path d="M20 36.6666C10.7953 36.6666 3.33333 29.2047 3.33333 20C3.33333 10.7952 10.7953 3.33331 20 3.33331C29.2048 3.33331 36.6667 10.7952 36.6667 20C36.6566 29.2005 29.2006 36.6565 20 36.6666ZM18.3333 28.3333V31.6666H21.6667V28.3333H18.3333ZM20 11.6666C21.841 11.6666 23.3333 13.159 23.3333 15C23.3392 15.8845 22.9841 16.7332 22.35 17.35L20.2833 19.45C19.0357 20.7028 18.3347 22.3985 18.3333 24.1666V25H21.6667C21.5371 23.2083 22.2598 21.4604 23.6167 20.2833L25.1167 18.75C26.1135 17.7572 26.6716 16.4068 26.6667 15C26.6667 11.3181 23.6819 8.33331 20 8.33331C16.3181 8.33331 13.3333 11.3181 13.3333 15H16.6667C16.6667 13.159 18.1591 11.6666 20 11.6666Z" fill="#737373"/>
</svg>
