<svg width="20" height="20" viewBox="0 0 20 20" fill="none" xmlns="http://www.w3.org/2000/svg">
<path d="M7.05418 17.1125C5.36905 17.1125 3.84983 16.0974 3.20485 14.5406C2.55987 12.9838 2.91613 11.1918 4.10752 10L5.87585 8.23167L7.05418 9.41L5.28668 11.1775C4.65507 11.8091 4.40839 12.7297 4.63958 13.5925C4.87077 14.4553 5.54469 15.1292 6.4075 15.3604C7.2703 15.5916 8.1909 15.345 8.82252 14.7133L10.59 12.9458L11.7683 14.125L10.0008 15.8925C9.22091 16.6763 8.1599 17.1156 7.05418 17.1125ZM7.64335 13.535L6.46502 12.3567L12.3575 6.46417L13.5358 7.6425L7.64418 13.5342L7.64335 13.535ZM14.1258 11.7675L12.9467 10.5892L14.7142 8.82167C15.3544 8.19194 15.6077 7.26722 15.3777 6.39915C15.1478 5.53108 14.4699 4.85304 13.6019 4.62287C12.7338 4.3927 11.8091 4.64577 11.1792 5.28583L9.41085 7.05333L8.23252 5.875L10.0008 4.10667C11.6301 2.49164 14.2583 2.4974 15.8805 4.11954C17.5026 5.74169 17.5084 8.36993 15.8933 9.99917L14.1258 11.7667V11.7675Z" fill="#23A6F0"/>
</svg>
