<svg width="20" height="20" viewBox="0 0 20 20" fill="none" xmlns="http://www.w3.org/2000/svg">
<path d="M11.5167 18.3333H8.48335C8.09178 18.3333 7.75298 18.0608 7.66918 17.6783L7.33001 16.1083C6.87756 15.9101 6.44853 15.6622 6.05085 15.3692L4.52001 15.8567C4.14668 15.9757 3.74084 15.8186 3.54501 15.4792L2.02501 12.8533C1.83134 12.5138 1.89806 12.0854 2.18585 11.8208L3.37335 10.7375C3.31934 10.2468 3.31934 9.75158 3.37335 9.26084L2.18585 8.18001C1.89764 7.91531 1.83089 7.48644 2.02501 7.14667L3.54168 4.51917C3.7375 4.17975 4.14335 4.02262 4.51668 4.14167L6.04751 4.62917C6.2509 4.47847 6.46262 4.33936 6.68168 4.21251C6.89196 4.09392 7.10838 3.98654 7.33001 3.89084L7.67001 2.32251C7.75341 1.93998 8.09184 1.66708 8.48335 1.66667H11.5167C11.9082 1.66708 12.2466 1.93998 12.33 2.32251L12.6733 3.89167C12.9073 3.9946 13.1352 4.11091 13.3558 4.24001C13.5616 4.35902 13.7605 4.4895 13.9517 4.63084L15.4833 4.14334C15.8564 4.02473 16.2618 4.1818 16.4575 4.52084L17.9742 7.14834C18.1679 7.48791 18.1011 7.91627 17.8133 8.18084L16.6258 9.26417C16.6798 9.75491 16.6798 10.2501 16.6258 10.7408L17.8133 11.8242C18.1011 12.0887 18.1679 12.5171 17.9742 12.8567L16.4575 15.4842C16.2618 15.8232 15.8564 15.9803 15.4833 15.8617L13.9517 15.3742C13.7579 15.5169 13.5565 15.6491 13.3483 15.77C13.1299 15.8966 12.9045 16.0109 12.6733 16.1125L12.33 17.6783C12.2463 18.0605 11.9079 18.333 11.5167 18.3333ZM6.35001 13.5242L7.03335 14.0242C7.18739 14.1376 7.34794 14.242 7.51418 14.3367C7.6706 14.4273 7.83165 14.5096 7.99668 14.5833L8.77418 14.9242L9.15501 16.6667H10.8467L11.2275 14.9233L12.005 14.5825C12.3444 14.4328 12.6666 14.2467 12.9658 14.0275L13.65 13.5275L15.3508 14.0692L16.1967 12.6042L14.8775 11.4017L14.9708 10.5583C15.0118 10.1895 15.0118 9.8172 14.9708 9.44834L14.8775 8.60501L16.1975 7.40001L15.3508 5.93417L13.65 6.47584L12.9658 5.97584C12.6665 5.7556 12.3444 5.56813 12.005 5.41667L11.2275 5.07584L10.8467 3.33334H9.15501L8.77251 5.07667L7.99668 5.41667C7.83152 5.48921 7.67044 5.57072 7.51418 5.66084C7.34896 5.75528 7.18926 5.85906 7.03585 5.97167L6.35168 6.47167L4.65168 5.93001L3.80418 7.40001L5.12335 8.60084L5.03001 9.44501C4.98902 9.81387 4.98902 10.1861 5.03001 10.555L5.12335 11.3983L3.80418 12.6008L4.65001 14.0658L6.35001 13.5242ZM9.99668 13.3333C8.15573 13.3333 6.66335 11.841 6.66335 10C6.66335 8.15906 8.15573 6.66667 9.99668 6.66667C11.8376 6.66667 13.33 8.15906 13.33 10C13.3277 11.84 11.8367 13.331 9.99668 13.3333ZM9.99668 8.33334C9.08618 8.33426 8.34492 9.06571 8.33187 9.97612C8.31883 10.8865 9.03882 11.6389 9.94892 11.6659C10.859 11.693 11.6224 10.9846 11.6633 10.075V10.4083V10C11.6633 9.07953 10.9172 8.33334 9.99668 8.33334Z" fill="#737373"/>
</svg>
