<svg width="32" height="32" viewBox="0 0 32 32" fill="none" xmlns="http://www.w3.org/2000/svg">
<path d="M16 28C10.109 28 5.33334 23.2244 5.33334 17.3333C5.33334 11.4423 10.109 6.66666 16 6.66666C21.891 6.66666 26.6667 11.4423 26.6667 17.3333C26.6601 23.2216 21.8883 27.9934 16 28ZM16 9.33332C11.5817 9.33332 8.00001 12.915 8.00001 17.3333C8.00001 21.7516 11.5817 25.3333 16 25.3333C20.4183 25.3333 24 21.7516 24 17.3333C23.9949 12.9172 20.4162 9.33847 16 9.33332ZM17.3333 18.6667H14.6667V12H17.3333V18.6667ZM25.724 10.276L23.0573 7.60932L24.9427 5.72399L27.6093 8.39066L25.7253 10.2747L25.724 10.276ZM20 5.33332H12V2.66666H20V5.33332Z" fill="white"/>
</svg>
