<svg width="20" height="20" viewBox="0 0 20 20" fill="none" xmlns="http://www.w3.org/2000/svg">
<path d="M3.33331 16.6667V10.8333H9.16665L6.48581 13.5167C7.41078 14.4625 8.67703 14.997 9.99998 15C12.1162 14.9969 14.0012 13.6618 14.7066 11.6667H14.7216C14.8171 11.3955 14.8893 11.1167 14.9375 10.8333H16.6141C16.1942 14.1666 13.3596 16.6665 9.99998 16.6667H9.99165C8.22395 16.6719 6.52761 15.9698 5.28081 14.7167L3.33331 16.6667ZM5.06165 9.16665H3.38498C3.80477 5.83466 6.63748 3.33511 9.99581 3.33329H9.99998C11.768 3.32763 13.4647 4.02985 14.7116 5.28332L16.6666 3.33329V9.16665H10.8333L13.5183 6.48332C12.5924 5.53636 11.3244 5.00177 9.99998 4.99999C7.88377 5.00311 5.99871 6.33814 5.29331 8.33332H5.27831C5.18211 8.60424 5.10989 8.88309 5.06248 9.16665H5.06165Z" fill="white"/>
</svg>
