<svg width="20" height="21" viewBox="0 0 20 21" fill="none" xmlns="http://www.w3.org/2000/svg">
<path d="M14.1667 18.8333H5.83333C4.91286 18.8333 4.16667 18.0871 4.16667 17.1667V6.33334H2.5V4.66667H5.83333V3.83334C5.83333 2.91286 6.57953 2.16667 7.5 2.16667H12.5C13.4205 2.16667 14.1667 2.91286 14.1667 3.83334V4.66667H17.5V6.33334H15.8333V17.1667C15.8333 18.0871 15.0871 18.8333 14.1667 18.8333ZM5.83333 6.33334V17.1667H14.1667V6.33334H5.83333ZM7.5 3.83334V4.66667H12.5V3.83334H7.5ZM12.5 15.5H10.8333V8.00001H12.5V15.5ZM9.16667 15.5H7.5V8.00001H9.16667V15.5Z" fill="#737373"/>
</svg>
