<svg width="20" height="20" viewBox="0 0 20 20" fill="none" xmlns="http://www.w3.org/2000/svg">
<path d="M9.99996 18.3333C5.39968 18.3283 1.67168 14.6003 1.66663 10V9.83333C1.75824 5.25377 5.52878 1.60663 10.1089 1.6674C14.6889 1.72817 18.3614 5.47407 18.3314 10.0544C18.3015 14.6348 14.5804 18.3324 9.99996 18.3333ZM9.98663 16.6667H9.99996C13.6806 16.663 16.6618 13.6773 16.66 9.99667C16.6581 6.31607 13.6739 3.33333 9.99329 3.33333C6.3127 3.33333 3.32847 6.31607 3.32663 9.99667C3.32479 13.6773 6.30603 16.663 9.98663 16.6667ZM10.8333 15H9.16663V13.3333H10.8333V15ZM10.8333 12.5H9.16663C9.14029 11.4147 9.70508 10.4007 10.6416 9.85166C11.1916 9.43 11.6666 9.06666 11.6666 8.33333C11.6666 7.41286 10.9204 6.66666 9.99996 6.66666C9.07949 6.66666 8.33329 7.41286 8.33329 8.33333H6.66663V8.25833C6.68002 7.06745 7.32773 5.97417 8.36577 5.39033C9.4038 4.80649 10.6745 4.82078 11.6991 5.42783C12.7237 6.03487 13.3467 7.14245 13.3333 8.33333C13.2736 9.23251 12.7913 10.0502 12.0333 10.5375C11.348 10.9677 10.9039 11.694 10.8333 12.5Z" fill="#737373"/>
</svg>
