<svg width="26" height="30" viewBox="0 0 26 30" fill="none" xmlns="http://www.w3.org/2000/svg">
<g clip-path="url(#clip0)">
<path d="M23.1111 17.3323V12.0588C23.1111 7.32789 19.955 3.3426 15.6794 2.14407C15.2562 1.05877 14.222 0.294067 13 0.294067C11.778 0.294067 10.7438 1.05877 10.3206 2.14407C6.045 3.34407 2.88889 7.32789 2.88889 12.0588V17.3323L0.423224 19.8426C0.288829 19.9789 0.182247 20.141 0.109612 20.3194C0.036978 20.4978 -0.000273649 20.6891 1.51331e-06 20.8823V23.8235C1.51331e-06 24.2135 0.152184 24.5876 0.423069 24.8633C0.693955 25.1391 1.06136 25.2941 1.44445 25.2941H24.5556C24.9387 25.2941 25.3061 25.1391 25.5769 24.8633C25.8478 24.5876 26 24.2135 26 23.8235V20.8823C26.0003 20.6891 25.963 20.4978 25.8904 20.3194C25.8178 20.141 25.7112 19.9789 25.5768 19.8426L23.1111 17.3323ZM23.1111 22.3529H2.88889V21.4911L5.35456 18.9808C5.48895 18.8445 5.59553 18.6825 5.66817 18.504C5.7408 18.3256 5.77805 18.1343 5.77778 17.9411V12.0588C5.77778 8.00436 9.01767 4.70583 13 4.70583C16.9823 4.70583 20.2222 8.00436 20.2222 12.0588V17.9411C20.2222 18.3323 20.3739 18.7058 20.6454 18.9808L23.1111 21.4911V22.3529ZM13 29.7058C13.8945 29.707 14.7672 29.4244 15.4967 28.8972C16.2262 28.3701 16.7763 27.6247 17.0704 26.7647H8.92956C9.22374 27.6247 9.7738 28.3701 10.5033 28.8972C11.2328 29.4244 12.1055 29.707 13 29.7058Z" fill="#23A6F0"/>
</g>
<defs>
<clipPath id="clip0">
<rect width="26" height="30" fill="white"/>
</clipPath>
</defs>
</svg>
