<svg width="25" height="25" viewBox="0 0 25 25" fill="none" xmlns="http://www.w3.org/2000/svg">
<path d="M12.4999 0.0253296C5.61096 0.0253296 0.0252075 5.61108 0.0252075 12.5C0.0252075 19.3889 5.61096 24.9747 12.4999 24.9747C19.3888 24.9747 24.9745 19.3889 24.9745 12.5C24.9745 5.61108 19.3888 0.0253296 12.4999 0.0253296ZM12.4999 22.8584C6.78046 22.8584 2.14144 18.2194 2.14144 12.5C2.14144 10.0218 3.013 7.74403 4.46652 5.96193L19.0379 20.5333C17.2558 21.9869 14.9781 22.8584 12.4999 22.8584ZM20.5332 19.038L5.96181 4.46664C7.7439 3.01312 10.0216 2.14157 12.4999 2.14157C18.2193 2.14157 22.8583 6.78058 22.8583 12.5C22.8583 14.9782 21.9867 17.256 20.5332 19.038Z" fill="#E0232E"/>
</svg>
